<!-- SVG for bat loading animation -->
<svg width="24" height="24" viewBox="0 0 24 24" xmlns="http://www.w3.org/2000/svg">
  <path d="M12 2C7.58 2 4 5.58 4 10C4 13.24 5.94 16.54 7.62 18.99C9.29 21.42 11.35 22.5 12 22.5C12.65 22.5 14.71 21.42 16.38 18.99C18.06 16.54 20 13.24 20 10C20 5.58 16.42 2 12 2Z" fill="#7b1fa2"/>
  <path d="M4 10C4 11.55 4.38 13.04 5 14.33L5.5 13.6C6.5 14.21 8.14 15 10 15C11.86 15 13.5 14.21 14.5 13.6L15 14.33C15.62 13.04 16 11.55 16 10C16 7.79 14.21 6 12 6C9.79 6 8 7.79 8 10Z" fill="#ffd600"/>
</svg>